{"title":"High.And.Low.1963.720p.BluRay.x264-SiNNERS","uid":6850153,"size":7043982330,"categoryP":"video","categoryS":"hd___movies","magnet":"?xt=urn:btih:31ec7993230d99980ee5a0489305023dc95da83e&amp;dn=High.And.Low.1963.720p.BluRay.x264-SiNNERS&amp;tr=udp%3A%2F%2Ftracker.openbittorrent.com%3A80&amp;tr=udp%3A%2F%2Fopen.demonii.com%3A1337&amp;tr=udp%3A%2F%2Ftracker.coppersurfer.tk%3A6969&amp;tr=udp%3A%2F%2Fexodus.desync.com%3A6969","seeders":2,"leechers":0,"uploader":"mfccorrea","files":4,"time":1322488697,"description":"Based on King's Ransom, an &quot;87th Precinct&quot; novel by Ed McBain (aka Evan Hunter), High and Low stars Toshiro Mifune as Gondo, a wealthy industrialist. Gondo is contacted by a gang of kidnappers, who inform him that they've kidnapped his son. The crooks demand a huge ransom for the boy's return -- an amount so huge that it will utterly bankrupt Gondo. As the harried businessman prepares to pay the ransom, he discovers that his son is safe at home: the kidnappers have accidentally snatched the son of his chauffeur. Does Gondo drop his payoff plans, or does he do the honorable thing and rescue his employee's son? This dilemma is but one aspect of the multilayered character study from the unbeatable team of star Toshiro Mifune and filmmaker Akira Kurosawa, who directs this superb film with his usual depth and impeccable eye for detail and character. As a man forced to make impossible decisions, Mifune gives a nuanced, perceptive and psychologically convincing performance. While not one of Kurosawa's master works, High and Low, with its grim reality and moral ambiguity stands as a superb example of film noir at its best. High and Low was originally released in Japan as Tengoku To-Jigoku.\n\nFormat : Matroska\nFile size : 6.56 GiB\nDuration : 2h 23mn\nOverall bit rate : 6 536 Kbps\nEncoded date : UTC 2011-07-16 03:44:57\nWriting application : mkvmerge v4.9.1 ('Ich will') built on Jul 11 2011 23:53:15\nWriting library : libebml v1.2.1 + libmatroska v1.1.1\n\nVideo\nID : 1\nFormat : AVC\nFormat/Info : Advanced Video Codec\nFormat profile : &lt;a class=&quot;__cf_email__&quot; href=&quot;/cdn-cgi/l/email-protection&quot; data-cfemail=&quot;3c74555b547c7008120d&quot;&gt;[email&amp;#160;protected]&lt;/a&gt;&lt;script cf-hash='f9e31' type=&quot;text/javascript&quot;&gt;\n/* &lt;![CDATA[ */!function(){try{var t=&quot;currentScript&quot;in document?document.currentScript:function(){for(var t=document.getElementsByTagName(&quot;script&quot;),e=t.length;e--;)if(t[e].getAttribute(&quot;cf-hash&quot;))return t[e]}();if(t&amp;&amp;t.previousSibling){var e,r,n,i,c=t.previousSibling,a=c.getAttribute(&quot;data-cfemail&quot;);if(a){for(e=&quot;&quot;,r=parseInt(a.substr(0,2),16),n=2;a.length-n;n+=2)i=parseInt(a.substr(n,2),16)^r,e+=String.fromCharCode(i);e=document.createTextNode(e),c.parentNode.replaceChild(e,c)}}}catch(u){}}();/* ]]&gt; */&lt;/script&gt;\nFormat settings, CABAC : Yes\nFormat settings, ReFrames : 5 frames\nFormat settings, GOP : M=4, N=32\nCodec ID : V_MPEG4/ISO/AVC\nDuration : 2h 23mn\nBit rate : 5 025 Kbps\nWidth : 1 280 pixels\nHeight : 544 pixels\nDisplay aspect ratio : 2.35:1\nFrame rate : 23.976 fps\nColor space : YUV\nChroma subsampling : 4:2:0\nBit depth : 8 bits\nScan type : Progressive\nBits/(Pixel*Frame) : 0.301\nStream size : 4.91 GiB (75%)\nWriting library : x264 core 116 r2019 9cc407d\n\nAudio\nID : 2\nFormat : DTS\nFormat/Info : Digital Theater Systems\nCodec ID : A_DTS\nDuration : 2h 23mn\nBit rate mode : Constant\nBit rate : 1 510 Kbps\nChannel(s) : 4 channels\nChannel positions : Front: L C R, Side: C\nSampling rate : 48.0 KHz\nBit depth : 24 bits\nCompression mode : Lossy\nStream size : 1.52 GiB (23%)\nLanguage : Japanese\n\nText\nID : 3\nFormat : UTF-8\nCodec ID : S_TEXT/UTF8\nCodec ID/Info : UTF-8 Plain Text\nLanguage : English\n &lt;a href=&quot;\nhttp://www.imdb.com/title/tt0057565/&quot; rel=&quot;nofollow&quot; target=&quot;_NEW&quot;&gt;\nhttp://www.imdb.com/title/tt0057565/&lt;/a&gt;\n\nLanguage: Japanese\nSubtitles: English (in the mkv), French, Spanish and Portuguese (srt)\n\n\n","torrent":{"xt":"urn:btih:31ec7993230d99980ee5a0489305023dc95da83e","amp;dn":"High.And.Low.1963.720p.BluRay.x264-SiNNERS","amp;tr":["udp%3A%2F%2Ftracker.openbittorrent.com%3A80","udp%3A%2F%2Fopen.demonii.com%3A1337","udp%3A%2F%2Ftracker.coppersurfer.tk%3A6969","udp%3A%2F%2Fexodus.desync.com%3A6969"],"infoHash":"31ec7993230d99980ee5a0489305023dc95da83e","infoHashBuffer":{"type":"Buffer","data":[49,236,121,147,35,13,153,152,14,229,160,72,147,5,2,61,201,93,168,62]},"announce":[],"urlList":[]}}